<?xml version="1.0" encoding="UTF-8"?>
<svg width="100pt" height="100pt" version="1.1" viewBox="0 0 100 100" xmlns="http://www.w3.org/2000/svg">
 <path d="m20.832 94.918h58.336c4.1602-0.011719 8.1484-1.6797 11.078-4.6328 2.9336-2.957 4.5664-6.957 4.5469-11.117v-50c-0.023438-4.1289-1.6797-8.082-4.6055-10.996-2.9297-2.9141-6.8906-4.5469-11.02-4.5469h-3.125v-5.293c0-1.7227-1.4023-3.125-3.125-3.125-1.7266 0-3.125 1.4023-3.125 3.125v5.418h-16.668v-5.418c0-1.7227-1.3984-3.125-3.125-3.125s-3.125 1.4023-3.125 3.125v5.418h-16.668v-5.418c0-1.7227-1.3984-3.125-3.125-3.125-1.7227 0-3.125 1.4023-3.125 3.125v5.418h-3.125c-4.1055 0-8.0508 1.6172-10.973 4.5039-2.9258 2.8828-4.5977 6.8047-4.6523 10.914v50c-0.019531 4.1602 1.6133 8.1602 4.5469 11.117 2.9297 2.9531 6.918 4.6211 11.078 4.6328zm8.332-27.293h0.003907c2.1055 0 4.0039 1.2695 4.8125 3.2148 0.80469 1.9453 0.35938 4.1875-1.1328 5.6758-1.4883 1.4883-3.7266 1.9375-5.6758 1.1289-1.9453-0.80469-3.2148-2.7031-3.2148-4.8125-0.011719-1.3828 0.53516-2.7148 1.5156-3.6953 0.97656-0.97656 2.3086-1.5234 3.6953-1.5117zm-5.207-11.457c0-2.1094 1.2695-4.0078 3.2148-4.8125 1.9492-0.80859 4.1875-0.35938 5.6758 1.1289 1.4922 1.4883 1.9375 3.7305 1.1328 5.6758-0.80859 1.9453-2.707 3.2148-4.8125 3.2148-1.3867 0.011719-2.7188-0.53516-3.6953-1.5117-0.98047-0.98047-1.5273-2.3125-1.5156-3.6953zm26.043 11.457c2.1055 0 4.0039 1.2695 4.8125 3.2148 0.80469 1.9453 0.35938 4.1875-1.1289 5.6758-1.4922 1.4883-3.7305 1.9375-5.6758 1.1289-1.9453-0.80469-3.2148-2.7031-3.2148-4.8125-0.011719-1.3828 0.53125-2.7148 1.5117-3.6953 0.98047-0.97656 2.3125-1.5234 3.6953-1.5117zm-5.207-11.457c0-2.1094 1.2695-4.0078 3.2148-4.8125 1.9453-0.80859 4.1836-0.35938 5.6758 1.1289 1.4883 1.4883 1.9336 3.7305 1.1289 5.6758-0.80859 1.9453-2.707 3.2148-4.8125 3.2148-1.3828 0.011719-2.7148-0.53516-3.6953-1.5117-0.98047-0.98047-1.5234-2.3125-1.5117-3.6953zm26.039 11.457c2.1094 0 4.0078 1.2695 4.8125 3.2148 0.80859 1.9453 0.35938 4.1875-1.1289 5.6758s-3.7305 1.9375-5.6758 1.1289c-1.9453-0.80469-3.2148-2.7031-3.2148-4.8125-0.011719-1.3828 0.53516-2.7148 1.5117-3.6953 0.98047-0.97656 2.3125-1.5234 3.6953-1.5117zm-5.207-11.457c0-2.1094 1.2695-4.0078 3.2148-4.8125 1.9453-0.80859 4.1875-0.35938 5.6758 1.1289s1.9375 3.7305 1.1289 5.6758c-0.80469 1.9453-2.7031 3.2148-4.8125 3.2148-1.3828 0.011719-2.7148-0.53516-3.6953-1.5117-0.97656-0.98047-1.5234-2.3125-1.5117-3.6953zm-44.793-36.293h3.125v5.125c0 1.7266 1.4023 3.125 3.125 3.125 1.7266 0 3.125-1.3984 3.125-3.125v-5.125h16.668v5.125c0 1.7266 1.3984 3.125 3.125 3.125s3.125-1.3984 3.125-3.125v-5.125h16.668v5.125c0 1.7266 1.3984 3.125 3.125 3.125 1.7227 0 3.125-1.3984 3.125-3.125v-5.125h3.125c5.1445 0 9.3281 4.1484 9.375 9.293v7.207h-77.086v-7.207c0.046875-5.1445 4.2305-9.293 9.375-9.293z" fill="#676767"/>
</svg>
